<svg xmlns="http://www.w3.org/2000/svg" width="91.799" height="116.458" viewBox="0 0 91.799 116.458">
  <g id="Group_10" data-name="Group 10" transform="translate(-1916.781 -829.769)">
    <path id="Path_29" data-name="Path 29" d="M1950.853,944.946a3.56,3.56,0,0,0,2.751,1.281h43.848a3.511,3.511,0,0,0,3.254-2.116c.067-.16.916-2.316,1.237-3.18.913-2.458,1.826-5.133,2.677-7.94a103.285,103.285,0,0,0,3.126-13.033c1.483-8.978,1.07-16.16-2.034-21.084-3.228-5.121-8.991-8.807-16.513-11.418a73.242,73.242,0,0,0-12.2-3.01c-1.448-.236-2.347-.338-2.347-.338V853.32a10.336,10.336,0,0,0-10.524-10.117h-1.755a10.34,10.34,0,0,0-10.524,10.134l.006,53.363-11.682-9.843c-7.5-6.321-17.941-4.642-22.88,3.681a3.318,3.318,0,0,0,.235,3.875Zm-25.086-43.712c2.864-2.111,6.638-1.946,9.787.707l17.494,14.74a3.523,3.523,0,0,0,5.818-2.542v-60.8a3.451,3.451,0,0,1,3.507-3.378h1.755a3.446,3.446,0,0,1,3.507,3.361v33.8a3.433,3.433,0,0,0,3.253,3.369c.217.016.664.055,1.307.126,1.093.12,2.316.284,3.636.5a66.24,66.24,0,0,1,10.99,2.7c6.153,2.136,10.655,5.015,12.894,8.567,2.012,3.193,2.346,8.991,1.1,16.518a96.967,96.967,0,0,1-2.932,12.2c-.811,2.672-1.68,5.222-2.549,7.561a6.663,6.663,0,0,0-.286.816h-39.694l-30.681-37.249A8.4,8.4,0,0,1,1925.767,901.233Z" fill="#3d58a6"/>
    <path id="Path_30" data-name="Path 30" d="M1993.34,850.429a26.011,26.011,0,1,0-37.907,28.018,3.842,3.842,0,1,0,3.685-6.742,18.309,18.309,0,1,1,17.657-.1,3.842,3.842,0,1,0,3.762,6.7,25.894,25.894,0,0,0,13.224-20.2h11.317v3.847c0,1.036.7,1.409,1.574.79L2017,855.387a1.281,1.281,0,0,0,0-2.239l-10.344-7.357c-.886-.63-1.574-.264-1.574.791v3.847Z" transform="translate(-9.075)" fill="#3d58a6"/>
  </g>
</svg>
