<svg xmlns="http://www.w3.org/2000/svg" width="81.744" height="116.458" viewBox="0 0 81.744 116.458">
  <path id="Path_28" data-name="Path 28" d="M2621.385,913.719a1.981,1.981,0,0,0-2.685.207L2605.5,928.6l-8.434-6.332a1.982,1.982,0,0,0-2.676.288,1.73,1.73,0,0,0,.3,2.526l9.876,7.417a1.988,1.988,0,0,0,2.639-.243l14.392-16.006A1.729,1.729,0,0,0,2621.385,913.719Zm-13.366,30.309a1.854,1.854,0,0,0-1.906,1.8,5.569,5.569,0,0,1-5.717,5.393h-50.555a5.568,5.568,0,0,1-5.716-5.393v-98.48a5.569,5.569,0,0,1,5.716-5.394H2600.4a5.569,5.569,0,0,1,5.717,5.394v55.029a1.909,1.909,0,0,0,3.811,0v-30.7a3.051,3.051,0,0,0,2.545-2.937v-7.865a3.049,3.049,0,0,0-2.545-2.936v-10.6a9.28,9.28,0,0,0-9.528-8.99h-50.555a9.279,9.279,0,0,0-9.527,8.99v98.48a9.279,9.279,0,0,0,9.527,8.989H2600.4a9.371,9.371,0,0,0,9.449-7.828,1.684,1.684,0,0,0,.08-.514v-.647A1.856,1.856,0,0,0,2608.019,944.028Zm-23.372-96.511a1.8,1.8,0,1,0,0-3.6h-19.053a1.8,1.8,0,1,0,0,3.6ZM2569.823,945a5.306,5.306,0,1,0,5.3-5A5.16,5.16,0,0,0,2569.823,945Zm6.784,0a1.489,1.489,0,1,1-1.486-1.4A1.447,1.447,0,0,1,2576.606,945Zm21.283-40.94a2.045,2.045,0,0,0,2.1-1.984V861.834c0-3.347-3.408-6.284-7.293-6.284h-34.451a7.106,7.106,0,0,0-7.293,6.884v67.106a7.105,7.105,0,0,0,7.293,6.883H2588.3a1.987,1.987,0,1,0,0-3.967h-30.058a3.012,3.012,0,0,1-3.091-2.917v-67.1a3.012,3.012,0,0,1,3.091-2.917H2592.7c1.792,0,3.092,1.385,3.092,2.318V902.08A2.043,2.043,0,0,0,2597.889,904.063Z" transform="translate(-2540.315 -838.357)" fill="#3d58a6"/>
</svg>
